# xmcd CD database file
#
# Track frame offsets:
#	150
#	14943
#	34738
#	50456
#	67311
#	92051
#	116155
#	130702
#	149062
#	163388
#	174461
#	188570
#
# Disc length: 2908 seconds
#
# Revision: 0
# Processed by: cddbd v1.5.1PL0 Copyright (c) Steve Scherf et al.
# Submitted via: CDex 1.51
#
DISCID=b90b5a0c
DTITLE=Various Artist - Jazz Trumpet
DYEAR=2005
DGENRE=Jazz
TTITLE0=Clifford Brown - Cookin'
TTITLE1=Clifford Brown - You Go To My Head
TTITLE2=Clifford Brown - Cherokee
TTITLE3=Clifford Brown - Cherokee
TTITLE4=Clifford Brown - Easy Living
TTITLE5=Clifford Brown - Stockholm Sweetnin
TTITLE6=Clifford Brown - Lover Come Back To Me
TTITLE7=Miles Davis - Jeru
TTITLE8=Miles Davis - Conception
TTITLE9=Miles Davis - Godchild
TTITLE10=Miles Davis - Yesterday
TTITLE11=Miles Davis - Hibeck
EXTD=YEAR: 2005
EXTT0=
EXTT1=
EXTT2=
EXTT3=
EXTT4=
EXTT5=
EXTT6=
EXTT7=
EXTT8=
EXTT9=
EXTT10=
EXTT11=
PLAYORDER=
